mtllib skybox.mtl
o SkyboxCube
v -0.500000 -0.500000 0.500000
v -0.500000 0.500000 0.500000
v -0.500000 -0.500000 -0.500000
v -0.500000 0.500000 -0.500000
v 0.500000 -0.500000 0.500000
v 0.500000 0.500000 0.500000
v 0.500000 -0.500000 -0.500000
v 0.500000 0.500000 -0.500000
vt 0.333333 0.500000
vt 0.000000 1.000000
vt 0.000000 0.500000
vt 0.666667 0.500000
vt 0.333333 1.000000
vt 1.000000 0.500000
vt 0.666667 1.000000
vt 0.666667 0.500000
vt 0.333333 0.000000
vt 0.333333 0.500000
vt 0.666667 0.000000
vt 1.000000 0.500000
vt 0.666667 0.500000
vt 0.333333 0.500000
vt 0.000000 0.000000
vt 0.333333 0.000000
vt 1.000000 1.000000
vt 0.666667 0.000000
vt 1.000000 0.000000
vt 0.000000 0.500000
vn 1.0000 0.0000 0.0000
vn 0.0000 0.0000 1.0000
vn -1.0000 0.0000 0.0000
vn 0.0000 0.0000 -1.0000
vn 0.0000 1.0000 0.0000
vn 0.0000 -1.0000 0.0000
usemtl skybox
s off
f 3/1/1 2/2/1 1/3/1
f 7/4/2 4/5/2 3/1/2
f 5/6/3 8/7/3 7/4/3
f 1/8/4 6/9/4 5/10/4
f 1/11/5 7/12/5 3/13/5
f 6/14/6 4/15/6 8/16/6
f 3/1/1 4/5/1 2/2/1
f 7/4/2 8/7/2 4/5/2
f 5/6/3 6/17/3 8/7/3
f 1/8/4 2/18/4 6/9/4
f 1/11/5 5/19/5 7/12/5
f 6/14/6 2/20/6 4/15/6
